<mxfile host="Electron" modified="2024-09-11T12:43:16.127Z" agent="Mozilla/5.0 (Windows NT 10.0; Win64; x64) AppleWebKit/537.36 (KHTML, like Gecko) draw.io/24.2.5 Chrome/120.0.6099.109 Electron/28.1.0 Safari/537.36" etag="OfYSWhiiD9UyeZVjacbr" version="24.2.5" type="device">
  <diagram id="v6gEtQgFYMTLWbohgbpz" name="show_page(BasePageクラス)">
    <mxGraphModel dx="1036" dy="606" grid="1" gridSize="10" guides="1" tooltips="1" connect="1" arrows="1" fold="1" page="1" pageScale="1" pageWidth="827" pageHeight="1169" math="0" shadow="0">
      <root>
        <mxCell id="0" />
        <mxCell id="1" parent="0" />
        <mxCell id="uSWcQdgZd3Qej-9-yTYq-1" value="" style="edgeStyle=orthogonalEdgeStyle;rounded=0;orthogonalLoop=1;jettySize=auto;html=1;" parent="1" source="uSWcQdgZd3Qej-9-yTYq-2" edge="1">
          <mxGeometry relative="1" as="geometry">
            <mxPoint x="400" y="455" as="targetPoint" />
          </mxGeometry>
        </mxCell>
        <mxCell id="uSWcQdgZd3Qej-9-yTYq-2" value="開始" style="strokeWidth=2;html=1;shape=mxgraph.flowchart.start_1;whiteSpace=wrap;" parent="1" vertex="1">
          <mxGeometry x="365" y="345" width="70" height="40" as="geometry" />
        </mxCell>
        <mxCell id="uSWcQdgZd3Qej-9-yTYq-3" value="" style="edgeStyle=orthogonalEdgeStyle;rounded=0;orthogonalLoop=1;jettySize=auto;html=1;" parent="1" edge="1">
          <mxGeometry relative="1" as="geometry">
            <mxPoint x="402" y="515" as="sourcePoint" />
            <mxPoint x="402" y="595" as="targetPoint" />
            <Array as="points">
              <mxPoint x="402" y="555" />
              <mxPoint x="402" y="555" />
            </Array>
          </mxGeometry>
        </mxCell>
        <mxCell id="uSWcQdgZd3Qej-9-yTYq-4" style="rounded=0;orthogonalLoop=1;jettySize=auto;html=1;entryX=1;entryY=0.25;entryDx=0;entryDy=0;exitX=-0.006;exitY=0.387;exitDx=0;exitDy=0;exitPerimeter=0;endArrow=none;endFill=0;" parent="1" source="uSWcQdgZd3Qej-9-yTYq-5" edge="1">
          <mxGeometry relative="1" as="geometry">
            <mxPoint x="500" y="495" as="targetPoint" />
          </mxGeometry>
        </mxCell>
        <mxCell id="uSWcQdgZd3Qej-9-yTYq-5" value="&lt;span style=&quot;font-size: 14px;&quot;&gt;MainWindowクラスからshow_pageメソッドを呼び出して、ページ遷移処理を行う。（渡したページクラス名のページに遷移する。）&lt;/span&gt;" style="text;html=1;align=left;verticalAlign=top;whiteSpace=wrap;rounded=0;fillColor=#f5f5f5;fontColor=#333333;strokeColor=#666666;" parent="1" vertex="1">
          <mxGeometry x="560" y="500" width="220" height="100" as="geometry" />
        </mxCell>
        <mxCell id="uSWcQdgZd3Qej-9-yTYq-6" value="終了" style="strokeWidth=2;html=1;shape=mxgraph.flowchart.start_1;whiteSpace=wrap;" parent="1" vertex="1">
          <mxGeometry x="366" y="595" width="70" height="40" as="geometry" />
        </mxCell>
        <mxCell id="uSWcQdgZd3Qej-9-yTYq-7" value="&lt;b style=&quot;&quot;&gt;&lt;font style=&quot;&quot;&gt;&lt;font style=&quot;font-size: 18px;&quot;&gt;ページ切替メソッド&lt;/font&gt;&lt;/font&gt;&lt;/b&gt;&lt;div&gt;&lt;font style=&quot;font-size: 14px;&quot;&gt;クラス：BasePageクラス&lt;/font&gt;&lt;/div&gt;&lt;div&gt;&lt;div style=&quot;font-size: 14px;&quot;&gt;&lt;font style=&quot;font-size: 14px;&quot;&gt;継承： ABC, customtkinter.CTkFrame&lt;/font&gt;&lt;/div&gt;&lt;/div&gt;&lt;div style=&quot;font-size: 14px;&quot;&gt;&lt;font style=&quot;font-size: 14px;&quot;&gt;&lt;br&gt;&lt;/font&gt;&lt;/div&gt;&lt;div style=&quot;font-size: 14px;&quot;&gt;&lt;font style=&quot;font-size: 14px;&quot;&gt;※ABCクラスを継承し、抽象クラスとしています。&lt;br&gt;&lt;/font&gt;&lt;/div&gt;&lt;div style=&quot;font-size: 14px;&quot;&gt;&lt;font style=&quot;font-size: 14px;&quot;&gt;&lt;br&gt;&lt;/font&gt;&lt;/div&gt;&lt;div style=&quot;font-size: 14px;&quot;&gt;&lt;font style=&quot;font-size: 14px;&quot;&gt;メソッドの役割&lt;/font&gt;&lt;/div&gt;&lt;div style=&quot;font-size: 14px;&quot;&gt;&lt;font style=&quot;font-size: 14px;&quot;&gt;ページ遷移を行うためのメソッド&lt;/font&gt;&lt;/div&gt;&lt;div style=&quot;font-size: 14px;&quot;&gt;&lt;br&gt;&lt;/div&gt;" style="text;html=1;align=left;verticalAlign=top;whiteSpace=wrap;rounded=0;fillColor=#f5f5f5;fontColor=#333333;strokeColor=#666666;" parent="1" vertex="1">
          <mxGeometry x="20" y="30" width="340" height="160" as="geometry" />
        </mxCell>
        <mxCell id="uSWcQdgZd3Qej-9-yTYq-8" style="rounded=0;orthogonalLoop=1;jettySize=auto;html=1;entryX=1;entryY=0.5;entryDx=0;entryDy=0;exitX=-0.006;exitY=0.387;exitDx=0;exitDy=0;exitPerimeter=0;endArrow=none;endFill=0;entryPerimeter=0;" parent="1" source="uSWcQdgZd3Qej-9-yTYq-9" target="uSWcQdgZd3Qej-9-yTYq-2" edge="1">
          <mxGeometry relative="1" as="geometry">
            <mxPoint x="435" y="325" as="targetPoint" />
          </mxGeometry>
        </mxCell>
        <mxCell id="uSWcQdgZd3Qej-9-yTYq-9" value="&amp;nbsp;引数１：self&lt;div&gt;&amp;nbsp;引数２：ページクラス名：str型&lt;span style=&quot;background-color: initial;&quot;&gt;,&lt;/span&gt;&lt;/div&gt;" style="text;html=1;align=left;verticalAlign=top;whiteSpace=wrap;rounded=0;fillColor=#f5f5f5;fontColor=#333333;strokeColor=#666666;" parent="1" vertex="1">
          <mxGeometry x="495" y="330" width="255" height="50" as="geometry" />
        </mxCell>
        <mxCell id="uSWcQdgZd3Qej-9-yTYq-10" value="self.master.&lt;div&gt;show_page(引数２)&lt;/div&gt;" style="shape=process;whiteSpace=wrap;html=1;backgroundOutline=1;" parent="1" vertex="1">
          <mxGeometry x="306" y="455" width="190" height="60" as="geometry" />
        </mxCell>
      </root>
    </mxGraphModel>
  </diagram>
</mxfile>
